<mxfile host="app.diagrams.net" modified="2024-03-29T05:56:43.020Z" agent="Mozilla/5.0 (Windows NT 10.0; Win64; x64) AppleWebKit/537.36 (KHTML, like Gecko) Chrome/123.0.0.0 Safari/537.36" etag="rzOk85gPabyCpFNs1O6L" version="24.2.0" type="github">
  <diagram name="第 1 页" id="Eqa_ZWC-rRwsL7rnyD2I">
    <mxGraphModel dx="1877" dy="557" grid="1" gridSize="10" guides="1" tooltips="1" connect="1" arrows="1" fold="1" page="1" pageScale="1" pageWidth="827" pageHeight="1169" math="0" shadow="0">
      <root>
        <mxCell id="0" />
        <mxCell id="1" parent="0" />
        <mxCell id="sLWthoAmwnwLxsoVaZzo-3" style="edgeStyle=orthogonalEdgeStyle;rounded=0;orthogonalLoop=1;jettySize=auto;html=1;entryX=0.5;entryY=0;entryDx=0;entryDy=0;" edge="1" parent="1" source="sLWthoAmwnwLxsoVaZzo-1" target="sLWthoAmwnwLxsoVaZzo-2">
          <mxGeometry relative="1" as="geometry" />
        </mxCell>
        <mxCell id="sLWthoAmwnwLxsoVaZzo-1" value="开始" style="rounded=1;whiteSpace=wrap;html=1;" vertex="1" parent="1">
          <mxGeometry x="80" y="190" width="70" height="40" as="geometry" />
        </mxCell>
        <mxCell id="sLWthoAmwnwLxsoVaZzo-7" value="" style="edgeStyle=orthogonalEdgeStyle;rounded=0;orthogonalLoop=1;jettySize=auto;html=1;" edge="1" parent="1" source="sLWthoAmwnwLxsoVaZzo-2" target="sLWthoAmwnwLxsoVaZzo-4">
          <mxGeometry relative="1" as="geometry" />
        </mxCell>
        <mxCell id="sLWthoAmwnwLxsoVaZzo-2" value="校验标准名称" style="rounded=0;whiteSpace=wrap;html=1;" vertex="1" parent="1">
          <mxGeometry x="55" y="280" width="120" height="60" as="geometry" />
        </mxCell>
        <mxCell id="sLWthoAmwnwLxsoVaZzo-9" style="edgeStyle=orthogonalEdgeStyle;rounded=0;orthogonalLoop=1;jettySize=auto;html=1;entryX=0.5;entryY=0;entryDx=0;entryDy=0;" edge="1" parent="1" source="sLWthoAmwnwLxsoVaZzo-4" target="sLWthoAmwnwLxsoVaZzo-8">
          <mxGeometry relative="1" as="geometry" />
        </mxCell>
        <mxCell id="sLWthoAmwnwLxsoVaZzo-4" value="保存制定到&lt;div&gt;&lt;span style=&quot;font-weight: 700; text-wrap: nowrap;&quot;&gt;stp_standard_establish_info&lt;/span&gt;&lt;br style=&quot;padding: 0px; margin: 0px; font-weight: 700; text-wrap: nowrap;&quot;&gt;&lt;span style=&quot;font-weight: 700; text-wrap: nowrap;&quot;&gt;(标准制定)&lt;/span&gt;&lt;br&gt;&lt;/div&gt;" style="rounded=0;whiteSpace=wrap;html=1;" vertex="1" parent="1">
          <mxGeometry x="10" y="390" width="210" height="60" as="geometry" />
        </mxCell>
        <mxCell id="sLWthoAmwnwLxsoVaZzo-11" style="edgeStyle=orthogonalEdgeStyle;rounded=0;orthogonalLoop=1;jettySize=auto;html=1;entryX=0.5;entryY=0;entryDx=0;entryDy=0;" edge="1" parent="1" source="sLWthoAmwnwLxsoVaZzo-8" target="sLWthoAmwnwLxsoVaZzo-10">
          <mxGeometry relative="1" as="geometry" />
        </mxCell>
        <mxCell id="sLWthoAmwnwLxsoVaZzo-8" value="&lt;div&gt;如果是QPL类型标准&lt;/div&gt;&lt;div&gt;1、做QPL编号判断&lt;/div&gt;&lt;div&gt;2、更新数据到编辑器&lt;/div&gt;" style="rounded=0;whiteSpace=wrap;html=1;" vertex="1" parent="1">
          <mxGeometry x="10" y="490" width="210" height="60" as="geometry" />
        </mxCell>
        <mxCell id="sLWthoAmwnwLxsoVaZzo-13" style="edgeStyle=orthogonalEdgeStyle;rounded=0;orthogonalLoop=1;jettySize=auto;html=1;entryX=0.5;entryY=0;entryDx=0;entryDy=0;" edge="1" parent="1" source="sLWthoAmwnwLxsoVaZzo-10">
          <mxGeometry relative="1" as="geometry">
            <mxPoint x="115" y="700" as="targetPoint" />
          </mxGeometry>
        </mxCell>
        <mxCell id="sLWthoAmwnwLxsoVaZzo-10" value="&lt;div&gt;如果是QPL类型标准&lt;/div&gt;&lt;div&gt;1、做QPL编号判断&lt;/div&gt;&lt;div&gt;2、更新数据到编辑器&lt;/div&gt;" style="rounded=0;whiteSpace=wrap;html=1;" vertex="1" parent="1">
          <mxGeometry x="10" y="590" width="210" height="60" as="geometry" />
        </mxCell>
        <mxCell id="sLWthoAmwnwLxsoVaZzo-17" style="edgeStyle=orthogonalEdgeStyle;rounded=0;orthogonalLoop=1;jettySize=auto;html=1;entryX=0.5;entryY=0;entryDx=0;entryDy=0;exitX=0;exitY=0.5;exitDx=0;exitDy=0;" edge="1" parent="1" source="sLWthoAmwnwLxsoVaZzo-14" target="sLWthoAmwnwLxsoVaZzo-21">
          <mxGeometry relative="1" as="geometry">
            <mxPoint x="-40" y="840" as="targetPoint" />
          </mxGeometry>
        </mxCell>
        <mxCell id="sLWthoAmwnwLxsoVaZzo-18" value="是" style="edgeLabel;html=1;align=center;verticalAlign=middle;resizable=0;points=[];" vertex="1" connectable="0" parent="sLWthoAmwnwLxsoVaZzo-17">
          <mxGeometry x="-0.0467" y="1" relative="1" as="geometry">
            <mxPoint as="offset" />
          </mxGeometry>
        </mxCell>
        <mxCell id="sLWthoAmwnwLxsoVaZzo-14" value="是否首次启动制定流程" style="rhombus;whiteSpace=wrap;html=1;" vertex="1" parent="1">
          <mxGeometry x="-15" y="700" width="260" height="80" as="geometry" />
        </mxCell>
        <mxCell id="sLWthoAmwnwLxsoVaZzo-24" style="edgeStyle=orthogonalEdgeStyle;rounded=0;orthogonalLoop=1;jettySize=auto;html=1;entryX=0.5;entryY=0;entryDx=0;entryDy=0;" edge="1" parent="1" source="sLWthoAmwnwLxsoVaZzo-21" target="sLWthoAmwnwLxsoVaZzo-23">
          <mxGeometry relative="1" as="geometry" />
        </mxCell>
        <mxCell id="sLWthoAmwnwLxsoVaZzo-21" value="&lt;span style=&quot;font-weight: 700; text-wrap: nowrap;&quot;&gt;stp_type_system_standard_info&lt;/span&gt;&lt;br style=&quot;padding: 0px; margin: 0px; font-weight: 700; text-wrap: nowrap;&quot;&gt;&lt;span style=&quot;font-weight: 700; text-wrap: nowrap;&quot;&gt;&amp;nbsp;(标准分类表)&lt;/span&gt;&lt;div&gt;&lt;span style=&quot;font-weight: 700; text-wrap: nowrap;&quot;&gt;更新上表中对应标准的状态为ENCATING&lt;/span&gt;&lt;/div&gt;" style="rounded=0;whiteSpace=wrap;html=1;" vertex="1" parent="1">
          <mxGeometry x="-150" y="840" width="220" height="60" as="geometry" />
        </mxCell>
        <mxCell id="sLWthoAmwnwLxsoVaZzo-23" value="&lt;span style=&quot;font-weight: 700; text-wrap: nowrap;&quot;&gt;stp_type_system_standard_info&lt;/span&gt;&lt;br style=&quot;padding: 0px; margin: 0px; font-weight: 700; text-wrap: nowrap;&quot;&gt;&lt;span style=&quot;font-weight: 700; text-wrap: nowrap;&quot;&gt;&amp;nbsp;(标准分类表)&lt;/span&gt;&lt;div&gt;&lt;span style=&quot;font-weight: 700; text-wrap: nowrap;&quot;&gt;更新上表中对应标准的状态为ENCATING&lt;/span&gt;&lt;/div&gt;" style="rounded=0;whiteSpace=wrap;html=1;" vertex="1" parent="1">
          <mxGeometry x="-150" y="940" width="220" height="60" as="geometry" />
        </mxCell>
      </root>
    </mxGraphModel>
  </diagram>
</mxfile>
